<?xml version="1.0" standalone="no"?>
<!DOCTYPE svg PUBLIC "-//W3C//DTD SVG 20010904//EN"
 "http://www.w3.org/TR/2001/REC-SVG-20010904/DTD/svg10.dtd">
<svg version="1.0" xmlns="http://www.w3.org/2000/svg"
 width="256.000000pt" height="256.000000pt" viewBox="0 0 256.000000 256.000000"
 preserveAspectRatio="xMidYMid meet">
<metadata>
Created by potrace 1.14, written by Peter Selinger 2001-2017
</metadata>
<g transform="translate(0.000000,256.000000) scale(0.100000,-0.100000)"
fill="#000000" stroke="none">
<path d="M1544 2303 c-43 -13 -83 -25 -89 -26 -22 -5 -142 -77 -166 -99 -14
-13 -44 -39 -66 -58 -39 -35 -106 -126 -136 -185 -20 -40 -54 -153 -63 -207
-16 -107 5 -304 38 -345 6 -7 8 -13 4 -13 -3 0 12 -33 33 -72 21 -40 45 -73
52 -72 14 1 229 152 229 161 0 2 -11 23 -24 46 -14 23 -25 45 -26 49 0 4 -3
13 -5 20 -36 99 -4 306 52 336 13 7 32 7 61 -1 47 -13 49 -12 56 27 7 41 43
106 79 144 37 39 74 59 138 77 176 48 365 -101 359 -282 -3 -86 -7 -81 75 -95
6 0 26 -5 45 -9 62 -14 128 39 158 130 49 143 -81 317 -318 428 -55 26 -123
48 -132 43 -2 -1 -16 4 -33 10 -16 7 -78 13 -136 15 -88 2 -120 -2 -185 -22z"/>
<path d="M1695 2008 c-28 -11 -57 -27 -65 -36 -45 -50 -71 -105 -74 -157 -2
-30 24 -118 39 -135 15 -17 15 -16 15 -64 0 -28 4 -34 25 -38 14 -3 28 -1 31
4 4 6 30 7 63 3 70 -8 145 8 188 40 76 59 107 195 61 276 -60 107 -174 150
-283 107z"/>
<path d="M1369 1315 c-19 -13 -71 -50 -116 -81 -46 -31 -83 -60 -83 -65 0 -4
11 -29 24 -56 56 -113 58 -237 6 -358 -18 -43 -22 -46 -47 -41 -81 18 -83 18
-94 -11 -37 -92 -57 -128 -90 -158 -68 -61 -116 -79 -214 -79 -105 1 -202 69
-254 179 -14 31 -19 61 -18 116 l1 74 -55 12 c-92 19 -121 16 -161 -17 -76
-63 -102 -175 -60 -263 27 -56 89 -125 165 -183 290 -220 689 -206 932 31 84
82 111 118 154 204 73 143 96 367 51 486 -5 14 -8 25 -5 25 8 0 -63 159 -83
184 l-20 26 -33 -25z"/>
<path d="M885 980 c-3 -5 -45 -8 -93 -7 -78 2 -91 -1 -132 -25 -58 -34 -81
-61 -101 -122 -29 -85 -5 -181 58 -234 77 -65 166 -80 248 -41 118 56 164 213
95 324 -11 18 -20 46 -20 63 0 21 -7 35 -19 42 -24 12 -28 12 -36 0z"/>
</g>
</svg>
